<svg width="27" height="27" viewBox="0 0 27 27" fill="none" xmlns="http://www.w3.org/2000/svg">
<path d="M2.25 6.74437C2.25 6.12562 2.75175 5.625 3.36937 5.625H12.3806C12.6775 5.625 12.9622 5.74293 13.1721 5.95286C13.3821 6.16278 13.5 6.4475 13.5 6.74437C13.5 7.04125 13.3821 7.32597 13.1721 7.53589C12.9622 7.74582 12.6775 7.86375 12.3806 7.86375H3.36937C3.0725 7.86375 2.78778 7.74582 2.57786 7.53589C2.36793 7.32597 2.25 7.04125 2.25 6.74437Z" fill="white"/>
<path d="M2.25 13.5C2.25 12.8812 2.75175 12.3806 3.36937 12.3806H23.6306C23.9275 12.3806 24.2122 12.4985 24.4221 12.7085C24.6321 12.9184 24.75 13.2031 24.75 13.5C24.75 13.7969 24.6321 14.0816 24.4221 14.2915C24.2122 14.5014 23.9275 14.6194 23.6306 14.6194H3.36937C3.0725 14.6194 2.78778 14.5014 2.57786 14.2915C2.36793 14.0816 2.25 13.7969 2.25 13.5Z" fill="white"/>
<path d="M3.36937 19.1363C3.0725 19.1363 2.78778 19.2542 2.57786 19.4641C2.36793 19.674 2.25 19.9588 2.25 20.2556C2.25 20.5525 2.36793 20.8372 2.57786 21.0472C2.78778 21.2571 3.0725 21.375 3.36937 21.375H16.8806C17.1775 21.375 17.4622 21.2571 17.6721 21.0472C17.8821 20.8372 18 20.5525 18 20.2556C18 19.9588 17.8821 19.674 17.6721 19.4641C17.4622 19.2542 17.1775 19.1363 16.8806 19.1363H3.36937Z" fill="white"/>
</svg>
