<svg width="32" height="32" viewBox="0 0 32 32" fill="none" xmlns="http://www.w3.org/2000/svg">
<path d="M16 32C24.8366 32 32 24.8366 32 16C32 7.16344 24.8366 0 16 0C7.16344 0 0 7.16344 0 16C0 24.8366 7.16344 32 16 32Z" fill="#044E82"/>
<path d="M11.7651 9.48147V17.6394H9.39474C8.97887 17.6394 8.60012 17.8788 8.42162 18.2544C8.24318 18.63 8.29687 19.0749 8.55943 19.3972L12.0072 23.6298C12.2119 23.8811 12.5187 24.0269 12.8426 24.0269C13.1664 24.0269 13.4733 23.8812 13.6779 23.6298L17.1257 19.3972C17.2854 19.2012 17.3678 18.96 17.3678 18.7166C17.3678 18.5595 17.3336 18.4015 17.2635 18.2543C17.0849 17.8787 16.7062 17.6393 16.2904 17.6393H13.92V9.48135H11.7651V9.48147Z" fill="white"/>
<path d="M19.4789 8.81396L16.1389 13.0466C15.8831 13.3706 15.8351 13.8123 16.0152 14.184C16.1952 14.5555 16.5719 14.7915 16.9847 14.7915H19.2474V22.9495H21.4022V14.7915H23.6649C24.0777 14.7915 24.4543 14.5556 24.6344 14.1841C24.7068 14.0348 24.7423 13.8741 24.7423 13.7143C24.7423 13.4765 24.6637 13.2406 24.5107 13.0468L21.1706 8.81415C20.9663 8.55521 20.6546 8.40421 20.3248 8.40421C19.995 8.40421 19.6833 8.55508 19.4789 8.81396Z" fill="white"/>
</svg>
