<svg width="24" height="24" viewBox="0 0 24 24" fill="none" xmlns="http://www.w3.org/2000/svg">
<path d="M17.27 9.36L18.35 8.55H17H4C3.85413 8.55 3.71424 8.49205 3.61109 8.38891C3.50795 8.28576 3.45 8.14587 3.45 8C3.45 7.85413 3.50795 7.71424 3.61109 7.61109C3.71424 7.50794 3.85413 7.45 4 7.45H17.08H18.4011L17.3547 6.64357L15.7864 5.43491C15.7862 5.43471 15.7859 5.4345 15.7856 5.4343C15.6707 5.34452 15.5961 5.21285 15.5781 5.06812C15.56 4.92307 15.6003 4.77677 15.6901 4.66143C15.7799 4.54608 15.9118 4.47113 16.0569 4.45306C16.2019 4.435 16.3482 4.47529 16.4636 4.56509L16.4639 4.56531L20.3239 7.56531L20.3238 7.56532L20.327 7.56775C20.3943 7.61908 20.4488 7.68523 20.4863 7.76107C20.5239 7.83691 20.5434 7.92038 20.5434 8.005C20.5434 8.08961 20.5239 8.17309 20.4863 8.24892C20.4491 8.32426 20.395 8.39005 20.3284 8.44123C20.3279 8.44157 20.3275 8.44191 20.327 8.44225L16.33 11.44C16.2348 11.5114 16.119 11.55 16 11.55C15.9146 11.55 15.8304 11.5301 15.754 11.4919C15.6777 11.4537 15.6112 11.3983 15.56 11.33C15.5167 11.2722 15.4851 11.2065 15.4672 11.1365C15.4493 11.0665 15.4453 10.9937 15.4555 10.9222C15.4657 10.8507 15.4899 10.7819 15.5267 10.7198C15.5635 10.6576 15.6122 10.6033 15.67 10.56L17.27 9.36Z" stroke="black" stroke-width="0.9"/>
<path d="M6.72998 15.64L5.64998 16.45H6.99998H20C20.1459 16.45 20.2857 16.5079 20.3889 16.6111C20.492 16.7142 20.55 16.8541 20.55 17C20.55 17.1459 20.492 17.2858 20.3889 17.3889C20.2857 17.4921 20.1459 17.55 20 17.55H6.91998H5.59893L6.64528 18.3564L8.21309 19.5647C8.32634 19.6547 8.39964 19.7856 8.41708 19.9292C8.4346 20.0735 8.39429 20.2188 8.30498 20.3335L8.3034 20.3355C8.25216 20.4021 8.18636 20.456 8.11105 20.4932C8.0361 20.5302 7.95371 20.5496 7.87013 20.55C7.74909 20.5493 7.63164 20.5088 7.53598 20.4346C7.53595 20.4346 7.53591 20.4345 7.53588 20.4345L3.67613 17.4347L3.67614 17.4347L3.67296 17.4323C3.60569 17.3809 3.55117 17.3148 3.51364 17.2389C3.47611 17.1631 3.45659 17.0796 3.45659 16.995C3.45659 16.9104 3.47612 16.8269 3.51364 16.7511C3.55094 16.6757 3.60501 16.6099 3.67171 16.5587L7.66998 13.56C7.78668 13.4725 7.93336 13.4349 8.07776 13.4555C8.22217 13.4762 8.35246 13.5533 8.43998 13.67C8.5275 13.7867 8.56508 13.9334 8.54445 14.0778C8.52383 14.2222 8.44668 14.3525 8.32998 14.44L6.72998 15.64Z" stroke="black" stroke-width="0.9"/>
</svg>
