<svg width="29" height="22" viewBox="0 0 29 22" fill="none" xmlns="http://www.w3.org/2000/svg">
<path d="M27.3763 9.65875H26.6864V6.22807C26.6864 4.82528 25.3066 3.68829 23.6175 3.68829H22.9811L22.9871 2.41347C22.9871 1.46843 22.0593 0.700592 20.9174 0.700592H2.51579C1.14192 0.700592 0.0178425 1.6161 0 2.75309C0 2.76294 0 2.77278 0 2.78263V19.5866C0 20.5316 0.92781 21.2994 2.06973 21.2994H23.6235C25.3185 21.2994 26.6924 20.1575 26.6924 18.7597V15.3241H27.3823C28.2744 15.3241 29 14.7236 29 13.9853V10.9976C28.9941 10.2592 28.2685 9.65875 27.3763 9.65875ZM2.51579 1.88189H20.9174C21.2683 1.88189 21.5597 2.11815 21.5597 2.40855L21.5537 3.68829H2.51579C1.91509 3.68829 1.4274 3.28468 1.4274 2.78755C1.4274 2.29042 1.91509 1.88189 2.51579 1.88189ZM25.259 18.7547C25.259 19.5029 24.5215 20.1132 23.6175 20.1132H2.06378C1.71288 20.1132 1.42145 19.877 1.42145 19.5816V4.66286C1.75451 4.79575 2.12326 4.86958 2.51579 4.86958H23.6175C24.5215 4.86958 25.259 5.47992 25.259 6.22807V9.65875H20.388C19.4959 9.65875 18.7703 10.2592 18.7703 10.9976V13.9853C18.7703 14.7236 19.4959 15.3241 20.388 15.3241H25.259V18.7547ZM27.5667 13.9853C27.5667 14.0739 27.4834 14.1428 27.3763 14.1428H20.394C20.2869 14.1428 20.2037 14.0739 20.2037 13.9853V10.9976C20.2037 10.9139 20.2869 10.8401 20.394 10.8401H27.3763C27.4774 10.8401 27.5667 10.909 27.5667 10.9976V13.9853Z" fill="white"/>
</svg>
