<svg width="27" height="13" viewBox="0 0 27 13" fill="none" xmlns="http://www.w3.org/2000/svg">
<path d="M14.8855 6.0543C14.9031 6.06685 14.9207 6.07969 14.9381 6.09282C15.3575 6.40841 15.7585 6.91799 15.7585 7.67935C15.7585 8.55607 15.2317 9.30962 14.4792 9.64359C14.4077 9.96247 14.1652 10.2167 13.853 10.3049C15.8854 10.1791 17.501 8.48499 17.501 6.4216C17.501 5.61497 17.2572 4.84335 16.7958 4.18701C16.6126 3.92637 16.5887 3.60145 16.704 3.328C16.4305 3.44331 16.1056 3.41941 15.8449 3.23604L14.8855 6.0543ZM14.8855 6.0543C15.3692 6.0449 15.7585 5.64994 15.7585 5.1639C15.7585 4.28722 15.2317 3.53368 14.4792 3.19971C14.4076 2.88054 14.1647 2.62617 13.8522 2.53813M14.8855 6.0543L13.8522 2.53813M13.8522 2.53813C14.5707 2.58195 15.2544 2.82089 15.8447 3.23592L13.8522 2.53813ZM13.8918 5.57673L13.8918 5.57673C13.49 5.44283 13.3353 5.31768 13.2803 5.25538C13.2433 5.21342 13.243 5.19391 13.243 5.1639C13.243 4.96194 13.4082 4.79677 13.6102 4.79677C13.8122 4.79677 13.9773 4.96189 13.9773 5.1639C13.9773 5.3474 14.0328 5.51791 14.1279 5.6596C14.0356 5.62464 13.9574 5.5986 13.9008 5.57974L13.8918 5.57673ZM17.1776 2.85436C17.3378 2.47631 17.2189 2.02487 16.8695 1.77907L16.8694 1.77901C15.9117 1.10574 14.7837 0.749626 13.6102 0.749626C10.4822 0.749626 7.93816 3.29364 7.93816 6.4216C7.93816 9.54955 10.4822 12.0936 13.6102 12.0936C16.7382 12.0936 19.2822 9.54955 19.2822 6.4216C19.2822 5.24825 18.9262 4.12035 18.253 3.16276C18.0072 2.81281 17.5555 2.6943 17.1776 2.85436ZM17.4347 3.73758L17.4348 3.73775L17.4347 3.73758ZM13.3673 10.3049C11.335 10.1791 9.7193 8.48499 9.7193 6.4216C9.7193 4.35805 11.3352 2.66384 13.3678 2.53824C13.0554 2.62638 12.8127 2.88067 12.7412 3.1997C11.9887 3.53367 11.4619 4.2872 11.4619 5.1639C11.4619 5.66332 11.639 6.10801 11.9799 6.47201C12.0882 6.58764 12.2108 6.69295 12.3463 6.7888C11.8573 6.79211 11.4619 7.18947 11.4619 7.67935C11.4619 8.55608 11.9887 9.30963 12.7412 9.64359C12.8127 9.96247 13.0552 10.2167 13.3673 10.3049ZM13.243 7.67935C13.243 7.4944 13.1866 7.32264 13.0902 7.18029C13.1676 7.21065 13.2471 7.23937 13.3285 7.26651L13.3286 7.26652C13.7302 7.40039 13.8853 7.51903 13.9409 7.57962C13.9736 7.61523 13.9773 7.63139 13.9773 7.67935C13.9773 7.88141 13.8122 8.04653 13.6102 8.04653C13.4081 8.04653 13.243 7.8814 13.243 7.67935ZM25.9377 8.7493C24.1292 9.10774 22.7022 10.5347 22.3438 12.3432H4.0939C3.73546 10.5347 2.30849 9.10774 0.5 8.7493V4.09391C2.3085 3.73551 3.73547 2.30852 4.0939 0.5H22.3438C22.7022 2.30849 24.1292 3.73546 25.9377 4.0939V8.7493ZM0.5 12.3432V10.5894C1.32308 10.8675 1.97574 11.5201 2.25379 12.3432H0.5ZM0.5 2.25382V0.500052H2.25379C1.97574 1.32312 1.32309 1.97575 0.5 2.25382ZM25.9377 2.25384C25.1146 1.97579 24.462 1.32314 24.1839 0.500052H25.9377V2.25384ZM24.1839 12.3432C24.462 11.5201 25.1146 10.8675 25.9377 10.5894V12.3432H24.1839ZM17.6139 3.61186C17.6142 3.61225 17.6144 3.61264 17.6147 3.61304C17.6144 3.61266 17.6142 3.61227 17.6139 3.61189L17.6139 3.61186Z" stroke="black"/>
</svg>
