<svg width="22" height="22" viewBox="0 0 22 22" fill="none" xmlns="http://www.w3.org/2000/svg">
<path d="M6.12497 17H14.075C14.2608 16.0895 14.7782 15.2804 15.5267 14.7296C16.2752 14.1788 17.2015 13.9256 18.1261 14.019C19.0507 14.1124 19.9077 14.5458 20.5309 15.2351C21.1541 15.9245 21.4992 16.8207 21.4992 17.75C21.4992 18.6793 21.1541 19.5755 20.5309 20.2649C19.9077 20.9542 19.0507 21.3876 18.1261 21.481C17.2015 21.5744 16.2752 21.3212 15.5267 20.7704C14.7782 20.2196 14.2608 19.4105 14.075 18.5H6.12497C5.03095 18.5 3.98174 18.0654 3.20815 17.2918C2.43456 16.5182 1.99997 15.469 1.99997 14.375C1.99997 13.281 2.43456 12.2318 3.20815 11.4582C3.98174 10.6846 5.03095 10.25 6.12497 10.25H14.375C15.0712 10.25 15.7388 9.97343 16.2311 9.48115C16.7234 8.98886 17 8.32119 17 7.62499C17 6.9288 16.7234 6.26112 16.2311 5.76884C15.7388 5.27655 15.0712 4.99999 14.375 4.99999H7.92497C7.73911 5.91052 7.22178 6.71961 6.47328 7.27039C5.72477 7.82117 4.79843 8.07441 3.87382 7.981C2.94922 7.8876 2.09224 7.45421 1.46901 6.76486C0.845792 6.0755 0.500732 5.1793 0.500732 4.24999C0.500732 3.32068 0.845792 2.42448 1.46901 1.73513C2.09224 1.04577 2.94922 0.612385 3.87382 0.518982C4.79843 0.425579 5.72477 0.678814 6.47328 1.22959C7.22178 1.78037 7.73911 2.58946 7.92497 3.49999H14.375C15.469 3.49999 16.5182 3.93459 17.2918 4.70818C18.0654 5.48176 18.5 6.53097 18.5 7.62499C18.5 8.71901 18.0654 9.76822 17.2918 10.5418C16.5182 11.3154 15.469 11.75 14.375 11.75H6.12497C5.42877 11.75 4.7611 12.0266 4.26881 12.5188C3.77653 13.0111 3.49997 13.6788 3.49997 14.375C3.49997 15.0712 3.77653 15.7389 4.26881 16.2311C4.7611 16.7234 5.42877 17 6.12497 17ZM4.24997 1.99999C3.80496 1.99999 3.36994 2.13195 2.99993 2.37918C2.62992 2.62642 2.34154 2.97782 2.17124 3.38895C2.00094 3.80009 1.95638 4.25249 2.0432 4.68895C2.13002 5.1254 2.34431 5.52631 2.65898 5.84098C2.97365 6.15565 3.37456 6.36994 3.81101 6.45676C4.24747 6.54358 4.69987 6.49902 5.11101 6.32872C5.52214 6.15842 5.87354 5.87003 6.12077 5.50002C6.36801 5.13001 6.49997 4.695 6.49997 4.24999C6.49997 3.65326 6.26292 3.08096 5.84096 2.659C5.419 2.23704 4.8467 1.99999 4.24997 1.99999Z" fill="white"/>
</svg>
